<svg width="128" height="128" viewBox="0 0 128 128" fill="none" xmlns="http://www.w3.org/2000/svg">
<path fill-rule="evenodd" clip-rule="evenodd" d="M15.7257 62.6611L4 88.8634H11.6691L13.9489 83.3101H25.734L28.0138 88.8634H35.6829L23.9278 62.6611H15.7257ZM19.8905 68.839L21.8801 73.8214L23.8696 78.8044L19.9024 78.8138L15.9353 78.8237L17.9129 73.8314L19.8905 68.839ZM72.5986 62.6611L60.8729 88.8634H68.542L70.8217 83.3101H82.6069L84.8866 88.8634H92.5558L80.8006 62.6611H72.5986ZM76.7634 68.839L78.7529 73.8214L80.7425 78.8044L76.7753 78.8138L72.8081 78.8237L74.7858 73.8314L76.7634 68.839ZM94.5616 62.5707H103.272L108.841 70.926L114.745 62.5707H123.33L112.987 75.2708L124 88.9537H115.29L108.967 80.0333L102.769 88.9537H93.4728L104.695 75.3961L94.5616 62.5707Z" fill="#8C96A1"/>
<path d="M57.7134 51.4815L47.2867 61.7127L50.8761 64.9529L54.2716 61.5473L54.6506 61.5479V81.085C54.6506 83.5652 52.6492 85.562 50.1631 85.562H46.5975C44.1114 85.562 42.1099 83.5652 42.1099 81.085V78.9997H35.1769V81.5967C35.1769 86.0808 38.7955 89.6908 43.2901 89.6908H52.5016C56.9963 89.6908 60.6148 86.0808 60.6148 81.5967V61.5617L60.8831 61.5623L64.8497 64.953L67.9687 61.7127L57.7134 51.4815Z" fill="#8C96A1"/>
<path d="M38.592 76.8484L49.0187 66.6172L45.4293 63.377L42.0338 66.7826L41.6548 66.7819V47.2449C41.6548 44.7647 43.6563 42.7679 46.1423 42.7679H49.708C52.194 42.7679 54.1955 44.7647 54.1955 47.2449V49.3302H61.1285V46.7332C61.1285 42.2491 57.51 38.6391 53.0153 38.6391H43.8038C39.3091 38.6391 35.6906 42.2491 35.6906 46.7332V66.7682L35.4223 66.7676L31.4558 63.3769L28.3367 66.6172L38.592 76.8484Z" fill="#8C96A1"/>
<path fill-rule="evenodd" clip-rule="evenodd" d="M43.8036 38C39.3089 38 35.6904 41.61 35.6904 46.0941V66.1291L35.4221 66.1285L31.4556 62.7378L28.3365 65.9781L38.5918 76.2093L49.0185 65.9781L45.4291 62.7378L42.0336 66.1435L41.6546 66.1428V46.6058C41.6546 44.1256 43.6561 42.1288 46.1421 42.1288H49.7078C52.1938 42.1288 54.1953 44.1256 54.1953 46.6058V48.6911H61.1283V46.0941C61.1283 41.61 57.5098 38 53.0151 38H43.8036ZM57.7134 50.8425L47.2867 61.0737L50.8761 64.314L54.2716 60.9084L54.6506 60.909V80.4461C54.6506 82.9263 52.6491 84.923 50.1631 84.923H46.5975C44.1114 84.923 42.1099 82.9263 42.1099 80.4461V78.3608H35.1769V80.9577C35.1769 85.4418 38.7954 89.0518 43.2901 89.0518H52.5016C56.9963 89.0518 60.6148 85.4418 60.6148 80.9577V60.9227L60.8831 60.9233L64.8497 64.314L67.9687 61.0737L57.7134 50.8425ZM94.5618 61.9317L104.695 74.7573L93.4729 88.3149H102.769L108.966 79.394L115.289 88.3149H124L112.987 74.6319L123.33 61.9317H114.745L108.841 70.2872L103.272 61.9317H94.5618ZM15.7257 62.0221L4 88.2244H11.6691L13.9489 82.6711H25.734L28.0138 88.2244H35.6829L23.9278 62.0221H15.7257ZM72.5989 62.0221L60.8731 88.2244H68.5423L70.822 82.6711H82.6071L84.8869 88.2244H92.556L80.8009 62.0221H72.5989ZM19.8905 68.2001L21.8801 73.1824L23.8696 78.1654L19.9024 78.1748L15.9353 78.1848L17.9129 73.1924L19.8905 68.2001ZM76.7637 68.2001L78.7532 73.1824L80.7427 78.1654L76.7755 78.1748L72.8084 78.1848L74.786 73.1924L76.7637 68.2001Z" fill="url(#paint0_linear_2_7)" stroke="#0C4C75" stroke-width="0.5"/>
<defs>
<linearGradient id="paint0_linear_2_7" x1="52.1841" y1="37.5918" x2="52.1841" y2="88.8932" gradientUnits="userSpaceOnUse">
<stop stop-color="#70B0DF"/>
<stop offset="0.5" stop-color="#1B81C5"/>
<stop offset="1" stop-color="#4A98CE"/>
</linearGradient>
</defs>
</svg>
