<svg width="223" height="236" viewBox="0 0 223 236" fill="none" xmlns="http://www.w3.org/2000/svg">
    <mask id="mask0_318_25" style="mask-type:luminance" maskUnits="userSpaceOnUse" x="12" y="16" width="199"
        height="210">
        <path d="M12.9988 16.7565H210.001V225.244H12.9988V16.7565Z" fill="white" />
    </mask>
    <g mask="url(#mask0_318_25)">
        <path
            d="M209.186 51.3795L202.102 162.622L134.369 16.7565L209.186 51.3795ZM162.272 195.222L111.093 224.425L59.9128 195.222L70.3221 169.995H151.863L162.272 195.222ZM111.093 72.1248L137.911 137.324H84.2739L111.093 72.1248ZM20.0105 162.622L12.9988 51.3795L87.8156 16.7565L20.0105 162.622Z"
            fill="url(#paint0_linear_318_25)" />
        <path
            d="M209.186 51.3795L202.102 162.622L134.369 16.7565L209.186 51.3795ZM162.272 195.222L111.093 224.425L59.9128 195.222L70.3221 169.995H151.863L162.272 195.222ZM111.093 72.1248L137.911 137.324H84.2739L111.093 72.1248ZM20.0105 162.622L12.9988 51.3795L87.8156 16.7565L20.0105 162.622Z"
            fill="url(#paint1_linear_318_25)" />
    </g>
    <defs>
        <linearGradient id="paint0_linear_318_25" x1="56.2943" y1="205.587" x2="212.501" y2="131.355"
            gradientUnits="userSpaceOnUse">
            <stop stop-color="#E40035" />
            <stop offset="0.24" stop-color="#F60A48" />
            <stop offset="0.352" stop-color="#F20755" />
            <stop offset="0.494" stop-color="#DC087D" />
            <stop offset="0.745" stop-color="#9717E7" />
            <stop offset="1" stop-color="#6C00F5" />
        </linearGradient>
        <linearGradient id="paint1_linear_318_25" x1="49.2411" y1="41.7961" x2="151.467" y2="158.408"
            gradientUnits="userSpaceOnUse">
            <stop stop-color="#FF31D9" />
            <stop offset="1" stop-color="#FF5BE1" stop-opacity="0" />
        </linearGradient>
    </defs>
</svg>
