<svg width="128" height="128" viewBox="0 0 128 128" fill="none" xmlns="http://www.w3.org/2000/svg">
<path d="M110.14 50.078C99.7157 50.078 100.19 59.1994 87.0405 59.1994C74.9576 59.1994 74.8391 50.1964 63.23 50.1964C56.004 50.1964 50.081 56.8302 50.081 64.0562C50.081 71.2823 56.1224 77.9161 63.9408 77.9161C74.3653 77.9161 73.8914 68.7947 87.0405 68.7947C99.1234 68.7947 99.2419 77.9161 110.851 77.9161C118.077 77.9161 124 71.2823 124 64.0562C124 56.8302 117.959 50.078 110.14 50.078Z" fill="#3131F5"/>
<path d="M31.7196 63.9378C31.7196 71.5924 25.5144 77.7976 17.8598 77.7976C10.2053 77.7976 4 71.5924 4 63.9378C4 56.2832 10.2053 50.078 17.8598 50.078C25.5144 50.078 31.7196 56.2832 31.7196 63.9378Z" fill="#3131F5"/>
<path d="M36.8134 40.7196C47.1195 40.7196 47.5933 32.0721 63.23 32.0721C78.9852 32.0721 80.2883 40.7196 89.6466 40.7196C97.3465 40.7196 103.506 34.5597 103.506 26.8598C103.506 19.1599 97.228 13 89.6466 13C79.3406 13 78.8667 21.6476 63.23 21.6476C47.3564 21.6476 46.1718 13 36.8134 13C29.1135 13 22.9536 19.1599 22.9536 26.8598C22.9536 34.5597 29.1135 40.7196 36.8134 40.7196Z" fill="#3131F5"/>
<path d="M89.6466 87.0375C79.3406 87.0375 78.8667 95.6851 63.23 95.6851C47.4748 95.6851 46.1718 87.0375 36.8134 87.0375C29.1135 87.0375 22.9536 93.1974 22.9536 100.897C22.9536 108.597 29.1135 114.757 36.8134 114.757C47.1195 114.757 47.5933 106.11 63.23 106.11C78.9852 106.11 80.2883 114.757 89.6466 114.757C97.3465 114.757 103.506 108.597 103.506 100.897C103.506 93.1974 97.228 87.0375 89.6466 87.0375Z" fill="#3131F5"/>
</svg>
