<svg width="128" height="128" viewBox="0 0 128 128" fill="none" xmlns="http://www.w3.org/2000/svg">
<path d="M108.674 32H19.3255L4 64.1087L19.3255 96.2175H108.674L124 64.1087L108.674 32ZM103.553 90.8746H22.6937L9.91764 64.1087L22.6937 37.3429H103.553L116.329 64.1087L103.553 90.8746Z" fill="#008EC7"/>
<path d="M116.329 64.112L103.553 90.8778H22.6937L9.91763 64.112L22.6937 37.3429H103.553L116.329 64.112Z" fill="#005B9B"/>
<path d="M45.1152 55.083V74.1973H40.6906V66.3564H32.0213V74.1941H27.5871V55.083H32.0084V62.6189H40.6778V55.083H45.1152Z" fill="white"/>
<path d="M53.608 58.6888H47.4913V55.083H64.1461V58.6888H58.0454V74.1973H53.608V58.6888Z" fill="white"/>
<path d="M70.7541 58.6888H64.6374V55.083H81.2922V58.6888H75.1754V74.1973H70.7541V58.6888Z" fill="white"/>
<path d="M96.3512 55.9306C97.5278 56.4326 98.5322 57.2674 99.241 58.3324C99.9311 59.4357 100.282 60.7175 100.249 62.0185C100.278 63.3149 99.9277 64.5916 99.241 65.6917C98.5378 66.7617 97.5317 67.5979 96.3512 68.0934C94.9553 68.6774 93.4521 68.9608 91.9394 68.9251H88.0864V74.1973H83.6682V55.083H91.9394C93.4536 55.0475 94.9579 55.3365 96.3512 55.9306ZM94.7265 64.4619C95.0755 64.1617 95.3506 63.7851 95.5304 63.3613C95.7103 62.9376 95.7901 62.4781 95.7636 62.0185C95.7636 60.946 95.4168 60.1208 94.7265 59.5493C94.0361 58.9778 93.0247 58.6888 91.6954 58.6888H88.0896V65.3225H91.6954C93.0247 65.3225 94.0351 65.0356 94.7265 64.4619Z" fill="white"/>
</svg>
