<svg width="128" height="128" viewBox="0 0 128 128" fill="none" xmlns="http://www.w3.org/2000/svg">
    <style>
        #body {
            --color-main: #be5372;
            fill: var(--color-main);
        }

        #stroke {
            --color-main: #fff;
            fill: var(--color-main);
        }

        @media (prefers-color-scheme: light) {
            #body {
                --color-main: #fff;
            }

            #stroke {
                --color-main: #be5372;
            }
        }
    </style>

    <path
        id="body"
        d="M110.364 62.6332C110.364 56.6285 105.485 51.7608 99.4672 51.7608C99.08 51.7608 98.6982 51.7815 98.3219 51.8207L113.288 7.77695H49.6865L64.6317 51.7827C64.4126 51.7695 64.1924 51.7608 63.9696 51.7608C57.9516 51.7608 53.0731 56.6285 53.0731 62.6332C53.0731 67.4869 56.261 71.5961 60.6612 72.9942C58.3371 77.0108 55.413 80.6283 52.093 83.7534C47.5785 88.0031 42.4118 91.2252 36.8241 93.2108C30.1709 89.8007 27.029 82.2161 29.8641 75.5664C30.1842 74.8158 30.5109 74.0543 30.8235 73.2966C35.6432 72.1741 39.2347 67.8625 39.2347 62.7113C39.2347 56.7066 34.3563 51.8389 28.3383 51.8389C22.3199 51.8389 17.4414 56.7066 17.4414 62.7113C17.4414 66.3937 19.2778 69.6456 22.0843 71.6126C19.3871 77.74 15.4228 84.1521 14.1877 91.5838C12.7074 100.491 14.1831 109.945 21.9033 115.285C39.8836 127.719 59.4008 107.576 79.9793 102.513C87.437 100.678 95.6234 100.973 102.194 97.1762C107.129 94.3246 110.381 89.5991 111.305 84.2934C112.217 79.0522 110.887 73.8337 107.83 69.6022C109.411 67.715 110.364 65.2856 110.364 62.6332ZM74.8652 62.6717C74.8652 62.6588 74.8665 62.646 74.8665 62.6332C74.8665 58.6901 72.7622 55.237 69.6137 53.3312L81.5089 29.3309L93.4247 53.5857C90.4986 55.5349 88.5703 58.8591 88.5703 62.6332C88.5703 62.7126 88.5748 62.7906 88.5765 62.8695L74.8652 62.6717Z" />
    <path
        id="stroke"
        d="M113.025 62.6332C113.025 56.029 108.256 50.5185 101.974 49.3414L117 5.12164H45.9742L61.0229 49.4311C54.9598 50.7775 50.4117 56.184 50.4117 62.6332C50.4117 67.4766 52.9768 71.7308 56.8214 74.1213C54.9722 76.8699 52.7793 79.4567 50.2664 81.8219C46.2815 85.5733 41.8415 88.4183 37.0549 90.2898C32.234 87.2681 30.196 81.5699 32.3126 76.6055L32.4783 76.2172C32.5818 75.9742 32.6857 75.7305 32.7892 75.4867C38.0843 73.6445 41.8957 68.6152 41.8957 62.7113C41.8957 55.2519 35.8135 49.1836 28.3377 49.1836C20.8618 49.1836 14.78 55.2519 14.78 62.7113C14.78 66.4763 16.3307 69.8856 18.8266 72.3406C18.3741 73.3032 17.8983 74.2816 17.4093 75.2838C15.127 79.9611 12.5403 85.2626 11.5619 91.1496C9.61872 102.841 12.7528 112.188 20.3868 117.467C25.0194 120.67 29.7235 121.93 34.4575 121.93C43.3718 121.93 52.3889 117.461 61.2084 113.09C67.5605 109.943 74.1284 106.687 80.6163 105.091C83.0303 104.497 85.5143 104.139 88.144 103.761C93.3587 103.01 98.7514 102.234 103.528 99.4741C109.064 96.2743 112.855 90.9067 113.926 84.7479C114.846 79.4608 113.739 74.1659 111.038 69.6749C112.297 67.6224 113.025 65.2113 113.025 62.6332ZM107.702 62.6332C107.702 67.1642 104.008 70.8508 99.4665 70.8508C94.9259 70.8508 91.2312 67.1642 91.2312 62.6332C91.2312 58.1022 94.9259 54.4161 99.4665 54.4161C104.008 54.4161 107.702 58.1022 107.702 62.6332ZM109.575 10.4323L96.3068 49.4802C95.7317 49.6178 95.171 49.7913 94.6266 50L81.519 23.3196L68.3733 49.8421C67.8053 49.6467 67.2206 49.486 66.621 49.367L53.3979 10.4323H109.575ZM63.9694 54.4161C68.5104 54.4161 72.2047 58.1022 72.2047 62.6332C72.2047 67.1642 68.5104 70.8508 63.9694 70.8508C59.4288 70.8508 55.7341 67.1642 55.7341 62.6332C55.7341 58.1022 59.4288 54.4161 63.9694 54.4161ZM28.3377 54.4942C32.8791 54.4942 36.5734 58.1803 36.5734 62.7113C36.5734 67.2423 32.8791 70.9288 28.3377 70.9288C23.797 70.9288 20.1024 67.2423 20.1024 62.7113C20.1024 58.1803 23.797 54.4942 28.3377 54.4942ZM108.682 83.8393C107.881 88.4451 105.03 92.4688 100.86 94.8783C96.9735 97.1246 92.3157 97.7951 87.3842 98.5045C84.7425 98.8846 82.0105 99.2779 79.3419 99.9348C72.2854 101.671 65.4505 105.058 58.8408 108.334C45.6136 114.89 34.19 120.551 23.419 113.102C15.529 107.646 15.8934 97.5505 16.8126 92.0185C17.6644 86.8933 19.9674 82.1731 22.1946 77.6082C22.5801 76.8183 22.9544 76.0445 23.3217 75.2756C24.4264 75.7164 25.6011 76.0168 26.8255 76.1531C24.5585 83.6191 28.124 91.7367 35.6073 95.5728L36.6313 96.0979L37.7162 95.7124C43.6323 93.6103 49.0834 90.2365 53.9188 85.6849C57.0446 82.7428 59.7306 79.4876 61.9392 76.0093C62.6017 76.1089 63.2795 76.1614 63.9694 76.1614C71.4453 76.1614 77.5274 70.093 77.5274 62.6332C77.5274 58.6216 75.7664 55.0139 72.9773 52.5342L81.4979 35.3423L90.105 52.8618C87.5225 55.3267 85.9089 58.7942 85.9089 62.6332C85.9089 70.093 91.9906 76.1614 99.4665 76.1614C102.339 76.1614 105.003 75.2632 107.198 73.737C108.722 76.8493 109.289 80.3511 108.682 83.8393Z" />
</svg>
