<svg width="123" height="122" viewBox="0 0 123 122" fill="none" xmlns="http://www.w3.org/2000/svg">
<path fill-rule="evenodd" clip-rule="evenodd" d="M113.449 87.8891L112.956 89.1692C104.568 105.506 89.6994 115.532 68.4924 115.971C58.5827 116.177 49.1295 113.635 42.9617 110.869C29.6413 104.889 18.4425 93.7884 12.3284 81.9361C3.55558 64.9455 1.9711 41.3036 20.215 23.6505C20.4925 23.6505 18.0039 27.4819 18.2814 27.4819L17.7801 29.1201C4.62981 70.2808 45.137 105.551 84.5073 101.523C93.9784 100.538 106.046 95.355 113.449 87.8891Z" fill="#21609B"/>
<path fill-rule="evenodd" clip-rule="evenodd" d="M89.6188 70.8716C99.5285 70.9432 109.868 66.3061 116 59.8071C110.638 73.4139 95.1153 82.1599 74.3022 79.3759C56.8729 77.0394 40.2761 59.5027 38.5663 41.9302C37.3131 29.138 41.7711 21.511 49.1206 12.2458C46.5693 17.0888 45.6114 20.8217 45.3787 23.2029C42.5768 50.8821 67.4719 70.7284 89.6188 70.8716Z" fill="#21609B"/>
<path fill-rule="evenodd" clip-rule="evenodd" d="M115.006 36.5143C113.467 40.0503 104.604 46.7194 100.683 47.552C85.1787 50.8552 75.2511 43.5057 70.0501 35.1357C69.2802 33.8825 67.8479 30.4718 67.5883 29.6035C65.5741 22.7463 66.4962 12.3711 72.5118 7C70.7035 12.1026 70.435 18.0377 71.3928 21.8959C71.9747 24.2234 73.7293 28.2965 75.4928 30.8567C78.6976 35.5207 80.7296 36.6486 84.8564 39.1283C86.7095 40.2383 88.7057 41.1335 89.5651 41.3841C93.4681 42.53 101.713 45.5557 115.006 36.5143Z" fill="#21609B"/>
</svg>
