<svg width="128" height="128" viewBox="0 0 128 128" fill="none" xmlns="http://www.w3.org/2000/svg">
<g clip-path="url(#clip0_104_5)">
<path d="M31.5908 33.4532C32.054 32.6657 32.6562 31.9092 33.5208 31.5386C33.876 31.4768 34.2311 31.5077 34.5862 31.5077H52.0646C51.5551 31.94 51.061 32.3878 50.7213 32.9745C49.8258 34.4414 49.2236 36.078 48.6678 37.7147C47.0929 42.6556 45.9966 47.7355 44.9312 52.8153C44.4526 55.1159 43.9894 57.432 43.557 59.7326C42.2292 67.2674 40.855 74.7869 39.1411 82.2445C38.3228 85.6877 37.489 89.1309 36.2229 92.4505C35.6362 93.8247 35.0649 95.2916 33.9377 96.3106C33.6752 96.5422 33.4128 96.8356 33.0422 96.7893H17.6019C16.552 96.7584 15.5175 96.851 14.4675 96.7429C15.1623 96.2025 15.78 95.554 16.1814 94.782C17.3394 92.5741 18.0651 90.1808 18.7599 87.803C19.8408 83.9738 20.7054 80.0983 21.5237 76.2228C22.0333 73.6751 22.6354 71.1429 23.006 68.5799C23.4229 65.7234 24.0559 62.8978 24.5655 60.0568C25.3684 55.8725 26.2176 51.6882 27.1594 47.5347C27.916 44.2923 28.688 41.0653 29.7225 37.9C30.2321 36.3714 30.7879 34.8583 31.5908 33.4532Z" fill="#EB7077" stroke="#EB7077" stroke-width="0.09375"/>
<path d="M52.0645 31.5078C52.5123 31.5078 52.96 31.4924 53.4078 31.5078C54.396 32.0328 55.2297 32.8666 55.693 33.9011C56.3106 35.0745 56.8201 36.3098 57.2833 37.5759C58.8273 42.3469 59.8773 47.2569 60.9272 52.1515C61.8227 56.5365 62.672 60.937 63.4749 65.353C63.5366 65.5846 63.4594 65.9088 63.7682 65.9706C62.6565 71.7761 61.5603 77.5971 60.1706 83.3563C59.4141 86.4598 58.6112 89.5479 57.4686 92.5433C56.851 94.041 56.2179 95.6777 54.9055 96.7431C54.0717 96.9283 53.4696 96.2953 52.96 95.724C52.0799 94.5969 51.5395 93.269 51.0145 91.9411C49.2698 87.1855 48.2044 82.2292 47.1236 77.2883C46.3053 73.4437 45.5796 69.5682 44.823 65.7081C44.4833 63.7472 44.0201 61.8171 43.7576 59.8562C43.7113 59.8253 43.6032 59.7636 43.5569 59.7327C43.9892 57.4321 44.4524 55.116 44.9311 52.8154C45.9965 47.7356 47.0927 42.6557 48.6676 37.7148C49.2235 36.0782 49.8256 34.4415 50.7212 32.9747C51.0609 32.3879 51.555 31.9402 52.0645 31.5078Z" fill="#F6A2AD" stroke="#F6A2AD" stroke-width="0.09375"/>
<path d="M71.3803 34.1789C71.9362 33.1136 72.6155 31.9247 73.8199 31.5232C79.9497 31.4923 86.0795 31.5078 92.2093 31.5078C91.638 32.0791 91.0358 32.6503 90.6498 33.376C89.4609 35.5068 88.7661 37.8692 88.0558 40.2006C86.2339 46.6238 84.9523 53.1859 83.7325 59.7481C82.6054 66.2175 81.4011 72.687 80.0269 79.1256C79.3166 82.3681 78.5755 85.5951 77.6336 88.7912C77.0315 90.7676 76.3984 92.7594 75.4102 94.5968C74.9316 95.4306 74.3757 96.3415 73.4647 96.7739C67.6129 96.8202 61.7456 96.7739 55.8937 96.7893C55.5694 96.7893 55.2298 96.7893 54.9055 96.743C56.2179 95.6776 56.851 94.0409 57.4686 92.5432C58.6112 89.5478 59.4141 86.4598 60.1707 83.3563C61.5603 77.597 62.6565 71.776 63.7682 65.9705C65.1115 58.482 66.5166 50.9934 68.3077 43.5975C69.1415 40.4014 69.9444 37.1589 71.3803 34.1789Z" fill="#EB7077" stroke="#EB7077" stroke-width="0.09375"/>
<path d="M92.2094 31.5078C92.7035 31.5078 93.213 31.4924 93.7071 31.5078C94.51 31.9247 95.0813 32.635 95.5908 33.3607C96.4246 34.6885 96.9496 36.1862 97.49 37.6531C98.7715 41.5903 99.7288 45.6357 100.609 49.6811C101.782 55.1315 102.801 60.6128 103.805 66.0941C104.052 67.4065 104.299 68.7344 104.454 70.0622C104.515 70.124 104.639 70.2475 104.685 70.2938C104.129 71.0659 103.913 71.9923 103.604 72.8724C102.632 76.0068 101.999 79.2492 101.458 82.4762C101.041 85.0084 100.47 87.5252 99.6825 89.9648C99.0958 91.7713 98.3855 93.5624 97.212 95.0755C96.6562 95.8012 95.8996 96.3571 95.0658 96.7276C93.7843 96.8666 93.0277 95.6314 92.4101 94.7204C91.1286 92.4815 90.4338 89.9802 89.6926 87.5406C87.2531 78.5081 85.6627 69.2593 83.9488 60.0724C83.9334 59.9334 83.8562 59.8099 83.7327 59.7481C84.9524 53.186 86.234 46.6239 88.0559 40.2007C88.7662 37.8692 89.461 35.5069 90.6499 33.3761C91.0359 32.6504 91.6381 32.0791 92.2094 31.5078Z" fill="#F6A2AD" stroke="#F6A2AD" stroke-width="0.09375"/>
<path d="M0.0153809 66.6344C0.416828 66.6035 0.818276 66.5417 1.23516 66.5417H18.0651C18.7753 66.6344 19.5165 66.5726 20.1958 66.8814C21.184 67.2829 22.0641 67.9623 22.7126 68.8115C22.7898 68.7651 22.9288 68.6416 23.006 68.5799C22.6354 71.143 22.0332 73.6752 21.5237 76.2228C20.7054 80.0983 19.8407 83.9738 18.7599 87.803C18.0651 90.1808 17.3394 92.5741 16.1814 94.782C15.7799 95.5541 15.1623 96.2025 14.4675 96.743C14.205 96.7893 14.0043 96.604 13.7881 96.465C13.0624 96.0018 12.6455 95.1989 12.1978 94.4732C10.0824 89.6559 9.85085 84.329 8.53842 79.2954C7.87449 76.7787 7.05615 74.2773 5.85181 71.9613C5.11068 70.5717 4.1997 69.2438 3.0108 68.1784C2.1307 67.4682 1.11164 66.8969 0.0153809 66.6344Z" fill="#F6A2AD" stroke="#F6A2AD" stroke-width="0.09375"/>
<path d="M106.044 68.2403C107.017 67.144 108.468 66.4492 109.935 66.511H122.596C124.356 66.5418 126.132 66.4492 127.892 66.5573C127.367 66.9124 126.734 67.0514 126.178 67.3447C124.248 68.2248 122.596 69.6917 121.546 71.5291C119.863 74.4627 119.276 77.8287 118.782 81.1329C118.288 84.3754 118.303 87.7259 117.253 90.8757C116.543 93.0837 115.462 95.3071 113.594 96.7585C107.789 96.8202 101.983 96.7739 96.1929 96.7894C95.8069 96.7894 95.4364 96.8048 95.0658 96.7276C95.8996 96.357 96.6561 95.8012 97.212 95.0755C98.3855 93.5623 99.0957 91.7713 99.6824 89.9648C100.47 87.5252 101.041 85.0084 101.458 82.4762C101.998 79.2492 102.632 76.0067 103.604 72.8724C103.913 71.9923 104.129 71.0658 104.685 70.2938C105.148 69.6145 105.457 68.827 106.044 68.2403Z" fill="#EB7077" stroke="#EB7077" stroke-width="0.09375"/>
</g>
<defs>
<clipPath id="clip0_104_5">
<rect width="128" height="128" fill="white"/>
</clipPath>
</defs>
</svg>
