<svg width="128" height="128" viewBox="0 0 128 128" fill="none" xmlns="http://www.w3.org/2000/svg">
    <style>
        path {
            --color-main: #33348e;
            fill: var(--color-main);
        }

        @media (prefers-color-scheme: dark) {
            path {
                --color-main: #e4e8ec;
            }
        }
    </style>

    <path fill-rule="evenodd" clip-rule="evenodd"
        d="M31.5657 35.4272C33.1654 35.4272 33.6575 36.9977 33.6933 38.1339C33.7126 39.0177 33.1422 40.7409 31.7012 40.7409C30.2702 40.7409 29.5742 39.0436 29.5742 38.0661C29.5749 37.1331 30.1055 35.4272 31.5657 35.4272ZM39.0722 36.0906C40.3505 36.0906 40.6287 37.7414 40.6287 38.3796C40.6287 39.2056 40.1791 40.8565 38.9095 40.8731C37.6245 40.8824 37.2746 39.0556 37.2746 38.5482C37.2746 37.7713 37.7281 36.0906 39.0722 36.0906ZM23.0008 38.3158C24.7532 38.3158 25.5879 39.9414 25.5879 41.2031C25.5879 42.4276 24.7718 43.9948 23.1787 43.9948C21.4661 43.9948 20.5783 42.2244 20.5783 41.0065C20.579 39.7429 21.411 38.3158 23.0008 38.3158ZM44.6675 39.3099C45.6064 39.3099 45.8747 40.6692 45.8747 41.1487C45.8747 41.731 45.5095 43.5286 44.3374 43.5286C43.3267 43.5286 43.1229 42.259 43.1229 41.6865C43.1229 41.1068 43.5147 39.3099 44.6675 39.3099ZM48.3981 44.0599C49.187 44.0599 49.3656 45.2512 49.3656 45.6051C49.3656 46.135 48.9904 47.8098 47.9539 47.8098C47.1357 47.8098 46.9724 46.7772 46.9724 46.3369C46.9724 45.8017 47.335 44.0599 48.3981 44.0599ZM14.6311 45.2186C16.3795 45.2186 17.5542 46.4843 17.5542 48.1425C17.5542 49.8716 16.1331 51.1028 14.5693 51.1028C12.9012 51.1028 11.6455 49.6937 11.6455 48.1425C11.6455 46.4843 12.9988 45.2186 14.6311 45.2186ZM8.52444 55.4796C10.0132 55.4796 11.3759 56.4836 11.3759 58.1258C11.3759 60.2919 9.22369 61.3571 7.69172 61.3571C6.12124 61.3571 4.83895 60.2886 4.83895 58.6697C4.83895 56.5686 6.91146 55.4796 8.52444 55.4796ZM6.00436 67.0068C7.30922 67.0068 8.52378 67.7134 8.52378 69.2128C8.52378 71.4407 6.0462 72.6513 4.47571 72.6513C3.26116 72.6513 1.88193 72.0038 1.88193 70.4592C1.88193 68.8044 3.63038 67.1961 5.51894 67.0407C5.84565 67.0135 5.91737 67.0068 6.00436 67.0068ZM7.56223 77.2339C8.60479 77.2339 9.55306 77.7512 9.55306 79.0122C9.55306 81.2275 6.77201 82.5476 5.34097 82.5476C4.21408 82.5476 3.41058 82.0091 3.41058 80.8185C3.41058 78.7201 6.04022 77.2339 7.56223 77.2339ZM37.262 83.2761C37.7759 83.2761 37.9061 83.6745 37.9061 84.0245C37.9061 84.7782 37.0149 86.5977 35.8143 86.5977C35.2632 86.5977 35.1828 86.2125 35.1828 85.8367C35.1828 85.1089 36.0481 83.2761 37.262 83.2761ZM12.1727 84.4057C13.0373 84.4057 13.7047 84.7908 13.7047 85.7663C13.7047 87.7478 11.2889 89.3535 9.73102 89.3535C8.89299 89.3535 8.29136 88.9033 8.29136 87.9776C8.29136 86.0957 10.5598 84.4057 12.1727 84.4057ZM31.5657 86.7279C32.2098 86.7279 32.3267 87.1741 32.3267 87.5958C32.3267 88.5513 31.0803 90.404 29.879 90.404C29.3704 90.404 29.1439 90.0953 29.1439 89.6012C29.1433 88.6277 30.2416 86.7279 31.5657 86.7279ZM18.468 87.9935C18.8923 87.9935 19.3877 88.1257 19.6115 88.7353V89.4989C19.6115 89.5833 19.4488 89.9817 19.3166 90.238C18.6725 91.5482 17.2182 92.4427 16.1823 92.4427C15.3794 92.4427 15.0355 92.0755 15.0355 91.3483C15.0355 89.904 17.0044 87.9935 18.468 87.9935ZM25.2386 88.5573C25.815 88.5573 26.0906 89.0009 26.0906 89.4352C26.0906 90.234 25.4166 91.4572 24.3873 92.1485C23.6197 92.6632 22.9822 92.6532 22.6256 92.4194C22.2889 92.1963 22.2697 91.8304 22.2697 91.6452C22.2697 90.3835 23.876 88.5573 25.2386 88.5573ZM103.022 45.38H111.968C112.009 45.4221 112.033 45.4775 112.036 45.536L109.987 54.7245L109.925 54.9576L110.061 54.8089C111.586 53.255 115.078 51.7974 117.683 51.7489C119.312 51.723 118.118 51.7038 119.711 51.7489C121.913 51.81 126.119 53.3486 126.119 56.6058C126.119 56.6058 125.935 57.9857 125.837 58.4452C125.818 58.6006 122.99 72.2303 122.99 72.2303H113.931C114.295 70.4546 116.339 61.6738 116.339 60.7833C116.339 58.8244 114.879 58.3443 113.445 58.3443C110.191 58.3443 108.957 60.1452 107.865 64.7298C107.24 67.317 106.781 69.6856 106.234 72.2329H97.1409C97.1395 72.2336 101.678 51.5842 103.022 45.38ZM89.647 51.6267C92.782 51.7151 98.5938 52.6275 98.5938 57.1609C98.5938 57.5627 98.4656 57.9027 98.4417 58.2839H88.3554C88.4331 56.5161 86.2026 56.5454 85.166 56.5454C84.5278 56.5454 81.6306 56.4936 81.6306 58.08C81.6306 58.8802 82.9587 59.1059 83.2529 59.1418C85.1919 59.343 89.0713 59.7222 89.2008 59.7222L89.9558 59.8132C92.5848 60.1784 98.1642 60.0941 97.9815 64.3885C97.7106 70.8969 91.8079 72.5583 86.3673 72.9242L82.2973 73.0212L79.6059 72.9587C78.0421 72.8757 69.8437 72.5384 69.8503 67.6981V66.1004H80.5489C80.3417 67.4611 81.9467 68.0248 82.8923 68.0248C82.8923 68.0248 83.4913 68.1052 84.7264 68.0248C85.9622 67.9458 87.3189 67.4803 87.3189 66.1781C87.3189 65.4158 86.6548 65.2325 85.9622 65.1681C83.5603 64.9217 81.0894 64.6441 78.6304 64.3978C75.4901 64.0936 71.9487 63.7543 71.9487 59.9267C71.9487 53.1653 79.0368 51.6467 83.7642 51.5563C88.4849 51.4614 85.8028 51.5099 89.647 51.6267ZM61.12 51.565C64.2902 51.7177 70.0774 52.5697 70.0774 57.0992C70.0774 57.5036 69.9373 57.8443 69.918 58.2221H59.8311C59.9114 56.461 57.6776 56.4803 56.6383 56.4803C56.0008 56.4803 53.1115 56.4351 53.1115 58.0222C53.1115 58.8251 54.4297 59.0482 54.7245 59.084C56.6675 59.2886 60.543 59.6671 60.6758 59.6671L61.3943 59.6737C63.9077 59.9453 69.6285 59.8351 69.4579 64.33C69.2048 70.8424 63.2954 72.48 57.8462 72.8359L53.7723 72.9654L51.13 72.9395C49.6047 72.7555 41.3319 72.7615 41.3319 67.6423V66.0433H52.0205C51.8233 67.4026 53.423 67.9657 54.3686 67.9657C54.3686 67.9657 54.7053 68.1032 56.2014 67.9657C57.7035 67.8362 58.7945 67.4252 58.7945 66.1217C58.7945 65.354 58.1278 65.1761 57.4352 65.1116C55.036 64.8679 52.565 64.5864 50.1067 64.34C46.9631 64.0365 43.4237 63.6932 43.4237 59.8683C43.4237 53.1042 50.4693 51.6799 55.1914 51.5656C59.9114 51.4547 61.12 51.565 61.12 51.565ZM44.5028 78.1662C44.4603 77.3866 44.0618 76.7903 43.2583 76.7903C42.3068 76.7903 41.4933 77.6642 41.3027 79.1663C41.1247 80.6757 41.7204 81.5502 42.676 81.5502C43.4987 81.5502 44.0559 80.938 44.2757 80.1843L43.8414 80.0674C43.6634 80.6046 43.3135 81.1545 42.7178 81.1545C42.0863 81.1545 41.6201 80.5555 41.7915 79.1663C41.9628 77.7784 42.5717 77.1821 43.2099 77.1821C43.8347 77.1821 44.0067 77.7359 44.0618 78.2705L44.5028 78.1662ZM47.0116 76.7903C46.06 76.7903 45.2505 77.6642 45.0619 79.1663C44.8773 80.6757 45.4769 81.5502 46.4285 81.5502C47.3768 81.5502 48.1929 80.6764 48.3775 79.1663C48.5621 77.6642 47.9598 76.7903 47.0116 76.7903ZM46.9631 77.1821C47.5946 77.1821 48.0634 77.7784 47.8987 79.1663C47.7267 80.5555 47.1092 81.1545 46.4777 81.1545C45.8402 81.1545 45.3733 80.5555 45.5453 79.1663C45.7167 77.7784 46.3249 77.1821 46.9631 77.1821ZM50.0098 77.3116H50.0197L50.6287 81.4553H51.0204L52.646 77.3116H52.6587L52.154 81.4553H52.6328L53.1965 76.8833H52.3771L50.9361 80.6498H50.9162L50.3823 76.8833H49.5795L49.0157 81.4553H49.5044L50.0098 77.3116ZM54.9032 77.3116H54.9198L55.5214 81.4553H55.9198L57.5454 77.3116H57.5514L57.0461 81.4553H57.5315L58.0886 76.8833H57.2698L55.8288 80.6498H55.8096L55.2757 76.8833H54.4729L53.9151 81.4553H54.3978L54.9032 77.3116ZM62.0882 76.8833H61.6088L61.2654 79.6849C61.1745 80.3981 61.039 81.0907 60.1186 81.0907C59.2056 81.0907 59.2414 80.3981 59.3224 79.6849L59.6657 76.8833H59.1863L58.8005 80.0183C58.6418 81.2514 59.4194 81.5502 60.0635 81.5502C60.7076 81.5502 61.553 81.2521 61.7017 80.0183L62.0882 76.8833ZM63.6587 77.2983H63.6753L65.265 81.4553H65.7531L66.3083 76.8833H65.8281L65.3885 80.4851H65.3753L63.9954 76.8833H63.2277L62.6706 81.4553H63.15L63.6587 77.2983ZM68.1331 76.8833H67.6543L67.0898 81.4553H67.5779L68.1331 76.8833ZM72.0158 78.1662C71.9832 77.3866 71.5855 76.7903 70.776 76.7903C69.8204 76.7903 69.0109 77.6642 68.8263 79.1663C68.6411 80.6757 69.2374 81.5502 70.1923 81.5502C71.0091 81.5502 71.5722 80.938 71.7927 80.1843L71.3584 80.0674C71.1804 80.6046 70.8371 81.1545 70.2414 81.1545C69.6033 81.1545 69.1338 80.5555 69.3051 79.1663C69.4698 77.7784 70.09 77.1821 70.7269 77.1821C71.3517 77.1821 71.5244 77.7359 71.5788 78.2705L72.0158 78.1662ZM74.6335 76.8833H73.9528L72.1008 81.4553H72.5935L73.1732 79.999H74.6594L74.8918 81.4553H75.3872L74.6335 76.8833ZM74.5903 79.588H73.3399L74.235 77.1887H74.247L74.5903 79.588ZM78.8874 76.8833H75.9496L75.8952 77.2943H77.1296L76.615 81.4553H77.1024L77.6111 77.2943H78.8383L78.8874 76.8833ZM80.3828 76.8833H79.9001L79.3409 81.4553H79.8197L80.3828 76.8833ZM83.0158 76.7903C82.0702 76.7903 81.2547 77.6642 81.0701 79.1663C80.8822 80.6757 81.4878 81.5502 82.4334 81.5502C83.389 81.5502 84.1985 80.6764 84.3831 79.1663C84.5757 77.6642 83.9714 76.7903 83.0158 76.7903ZM82.97 77.1821C83.6081 77.1821 84.075 77.7784 83.9036 79.1663C83.7376 80.5555 83.1187 81.1545 82.4872 81.1545C81.8491 81.1545 81.3836 80.5555 81.5482 79.1663C81.7209 77.7784 82.3398 77.1821 82.97 77.1821ZM86.0167 77.2983H86.0299L87.6303 81.4553H88.1091L88.6729 76.8833H88.1841L87.7472 80.4851H87.7299L86.3513 76.8833H85.5903L85.0272 81.4553H85.5087L86.0167 77.2983ZM92.371 77.9823C92.28 77.3209 91.8822 76.7903 91.1571 76.7903C90.428 76.7903 89.7838 77.283 89.6862 78.0367C89.5023 79.5661 91.7952 79.0408 91.6359 80.3105C91.5814 80.7992 91.1272 81.1545 90.6551 81.1545C90.0846 81.1545 89.7287 80.6863 89.6796 80.1444L89.2074 80.2547C89.2619 81.0509 89.7898 81.5502 90.5993 81.5502C91.3775 81.5502 92.027 81.0549 92.1246 80.2547C92.3232 78.6623 90.0362 79.1059 90.1749 77.963C90.2374 77.5181 90.661 77.1821 91.0827 77.1821C91.6717 77.1821 91.8298 77.6025 91.9181 78.1184L92.371 77.9823ZM99.1576 77.9823C99.0666 77.3209 98.6688 76.7903 97.9503 76.7903C97.2152 76.7903 96.5704 77.283 96.4728 78.0367C96.2889 79.5661 98.5818 79.0408 98.4225 80.3105C98.368 80.7992 97.9138 81.1545 97.447 81.1545C96.8712 81.1545 96.5146 80.6863 96.4662 80.1444L95.9927 80.2547C96.0551 81.0509 96.5764 81.5502 97.3919 81.5502C98.1635 81.5502 98.8196 81.0549 98.9172 80.2547C99.1078 78.6623 96.8287 79.1059 96.9675 77.963C97.0233 77.5181 97.4536 77.1821 97.864 77.1821C98.4583 77.1821 98.6124 77.6025 98.7034 78.1184L99.1576 77.9823ZM102.856 76.8833H100.371L99.809 81.4553H102.431L102.477 81.0442H100.343L100.563 79.2632H101.992L102.04 78.8495H100.612L100.802 77.2943H102.801L102.856 76.8833ZM106.363 78.1662C106.32 77.3866 105.923 76.7903 105.113 76.7903C104.16 76.7903 103.342 77.6642 103.162 79.1663C102.979 80.6757 103.578 81.5502 104.53 81.5502C105.346 81.5502 105.908 80.938 106.129 80.1843L105.696 80.0674C105.518 80.6046 105.175 81.1545 104.579 81.1545C103.947 81.1545 103.474 80.5555 103.647 79.1663C103.817 77.7784 104.426 77.1821 105.058 77.1821C105.696 77.1821 105.861 77.7359 105.915 78.2705L106.363 78.1662ZM110.238 76.8707H109.759L109.415 79.675C109.335 80.3882 109.188 81.0808 108.275 81.0808C107.355 81.0808 107.392 80.3882 107.472 79.675L107.822 76.8707H107.336L106.951 80.0116C106.801 81.2361 107.576 81.5409 108.214 81.5409C108.865 81.5409 109.704 81.2361 109.856 80.0116L110.238 76.8707ZM111.324 76.8833L110.759 81.4553H111.243L111.495 79.3967H112.408L112.985 81.4553H113.513L112.901 79.319C113.444 79.1504 113.842 78.7134 113.911 78.1662C113.972 77.6343 113.829 76.8833 112.401 76.8833H111.324ZM111.758 77.2943H112.49C113.137 77.2943 113.506 77.5175 113.431 78.1463C113.376 78.5667 113.137 78.9843 112.196 78.9843H111.545L111.758 77.2943ZM115.653 76.8833H115.173L114.61 81.4553H115.092L115.653 76.8833ZM119.467 76.8833H116.533L116.484 77.2943H117.713L117.203 81.4553H117.683L118.191 77.2943H119.422L119.467 76.8833ZM122.98 76.8833H122.494L121.189 79.0727H121.176L120.342 76.8833H119.833L120.869 79.5395L120.636 81.4553H121.116L121.354 79.5395L122.98 76.8833Z" />
</svg>
