<svg width="128" height="128" viewBox="0 0 128 128" fill="none" xmlns="http://www.w3.org/2000/svg">
    <defs>
        <linearGradient id="grad" x1="100%" y1="0%" x2="30%" y2="70%">
            <stop offset="0%" stop-color="#9e0cce" />
            <stop offset="100%" stop-color="#d60a80" />
        </linearGradient>
    </defs>
    <circle cx="64" cy="64" r="58" fill="white" />
    <path
        d="M81.0182 52.4967C81.0182 53.8522 80.4797 55.1523 79.5211 56.1109C78.5626 57.0694 77.2625 57.6079 75.9069 57.6079C74.5513 57.6079 73.2513 57.0694 72.2927 56.1109C71.3342 55.1523 70.7957 53.8522 70.7957 52.4967C70.7957 51.1411 71.3342 49.841 72.2927 48.8825C73.2513 47.9239 74.5513 47.3854 75.9069 47.3854C77.2625 47.3854 78.5626 47.9239 79.5211 48.8825C80.4797 49.841 81.0182 51.1411 81.0182 52.4967ZM122 64C122 96.0305 96.0305 122 64 122C62.3083 122 60.6312 121.927 58.9733 121.787C68.7318 112.652 71.2887 97.3258 71.2887 97.3258L55.6963 92.2363C55.6963 92.2363 48.4512 107.848 28.6345 109.975C21.5869 104.562 15.8796 97.6 11.9545 89.6275C8.02949 81.6551 5.99207 72.8862 6.00002 64C6.00002 31.9695 31.9695 6 64 6C96.0305 6 122 31.9695 122 64ZM47.702 37.929C41.757 37.3007 38.5912 33.9173 37.8903 28.1125C37.204 33.7143 34.1687 37.1992 28.069 37.929C33.7143 39.0262 36.914 42.366 37.8855 47.7503C37.7888 42.1727 41.1045 38.9295 47.702 37.929ZM85.3343 63.0962C90.6993 51.095 87.229 42.5448 79.3748 32.9072C69.5003 40.1572 61.2063 47.5183 61.8008 57.794C55.155 61.0565 50.8727 63.623 46.5903 68.8575L60.0222 74.1886L58.2435 80.3125L75.8223 85.4455L77.9635 79.7373L91.6177 82.8838C91.6853 75.6531 89.781 67.915 85.3343 63.0962Z"
        fill="url(#grad)" />
</svg>
